<svg xmlns="http://www.w3.org/2000/svg" viewBox="0 0 256 256" clip-path="url(#clip)" width="416" height="416"><defs><clipPath id="clip" clipPathUnits="objectBoundingBox"><rect x="0" y="0" width="256" height="256"/></clipPath></defs><rect x="0" y="0" width="256" height="256" fill="rgb(55, 195, 235)"/><path d="M135,62L185,245L239,185Z" fill="rgb(40, 157, 203)" fill-opacity="0.72"/><path d="M199,14L218,214L22,199Z" fill="rgb(53, 161, 204)" fill-opacity="0.39"/><path d="M164,208L113,288L202,234Z" fill="rgb(48, 208, 248)" fill-opacity="0.50"/><path d="M114,2L81,80L58,9Z" fill="rgb(53, 148, 190)" fill-opacity="0.42"/><path d="M166,181L97,87L169,114Z" fill="rgb(37, 195, 243)" fill-opacity="0.53"/><path d="M124,185L87,106L134,111Z" fill="rgb(34, 160, 209)" fill-opacity="0.60"/><path d="M318,40L183,125L134,64Z" fill="rgb(83, 180, 213)" fill-opacity="0.51"/><path d="M70,216L20,193L44,172Z" fill="rgb(69, 160, 196)" fill-opacity="0.43"/><path d="M188,138L197,181L160,146Z" fill="rgb(32, 142, 186)" fill-opacity="0.45"/><path d="M151,63L130,62L145,88Z" fill="rgb(64, 198, 236)" fill-opacity="0.52"/><path d="M245,219L147,174L204,254Z" fill="rgb(44, 156, 201)" fill-opacity="0.43"/><path d="M215,30L250,-51L271,62Z" fill="rgb(81, 215, 242)" fill-opacity="0.56"/><path d="M60,92L-13,74L16,123Z" fill="rgb(50, 172, 217)" fill-opacity="0.50"/><path d="M140,155L75,193L102,128Z" fill="rgb(45, 166, 211)" fill-opacity="0.64"/><path d="M160,208L110,248L60,177Z" fill="rgb(73, 210, 243)" fill-opacity="0.42"/><path d="M-18,177L51,218L38,249Z" fill="rgb(79, 205, 236)" fill-opacity="0.46"/><path d="M74,176L47,103L-1,165Z" fill="rgb(62, 221, 253)" fill-opacity="0.38"/><path d="M1,-15L41,46L76,49Z" fill="rgb(47, 173, 218)" fill-opacity="0.74"/><path d="M75,212L53,260L130,262Z" fill="rgb(61, 170, 211)" fill-opacity="0.47"/><path d="M145,199L117,200L105,169Z" fill="rgb(84, 179, 212)" fill-opacity="0.47"/><path d="M222,173L359,196L215,205Z" fill="rgb(60, 207, 245)" fill-opacity="0.41"/><path d="M21,82L13,54L15,92Z" fill="rgb(94, 213, 239)" fill-opacity="0.52"/><path d="M55,156L18,156L42,135Z" fill="rgb(79, 220, 246)" fill-opacity="0.43"/><path d="M67,55L131,52L73,13Z" fill="rgb(60, 157, 194)" fill-opacity="0.37"/><path d="M260,109L175,105L195,147Z" fill="rgb(85, 226, 255)" fill-opacity="0.24"/><path d="M216,52L255,59L223,77Z" fill="rgb(50, 171, 213)" fill-opacity="0.55"/><path d="M176,103L188,99L177,90Z" fill="rgb(103, 204, 232)" fill-opacity="0.50"/><path d="M155,90L158,72L189,72Z" fill="rgb(106, 184, 209)" fill-opacity="0.53"/><path d="M195,291L132,228L192,213Z" fill="rgb(50, 206, 246)" fill-opacity="0.41"/><path d="M23,69L30,24L17,59Z" fill="rgb(103, 220, 242)" fill-opacity="0.43"/><path d="M127,99L141,85L152,118Z" fill="rgb(24, 159, 212)" fill-opacity="0.39"/><path d="M167,208L189,211L185,184Z" fill="rgb(33, 140, 183)" fill-opacity="0.57"/><path d="M67,234L52,234L67,220Z" fill="rgb(85, 191, 223)" fill-opacity="0.48"/><path d="M249,187L239,176L238,194Z" fill="rgb(90, 209, 236)" fill-opacity="0.50"/><path d="M96,104L35,44L12,110Z" fill="rgb(28, 174, 228)" fill-opacity="0.25"/><path d="M14,-22L-33,-4L11,44Z" fill="rgb(89, 218, 243)" fill-opacity="0.38"/><path d="M217,59L210,52L231,30Z" fill="rgb(91, 218, 244)" fill-opacity="0.47"/><path d="M157,83L199,73L166,98Z" fill="rgb(97, 191, 219)" fill-opacity="0.43"/><path d="M30,218L13,182L30,181Z" fill="rgb(84, 198, 230)" fill-opacity="0.53"/><path d="M152,192L164,84L126,175Z" fill="rgb(48, 215, 255)" fill-opacity="0.27"/><path d="M179,121L109,123L93,94Z" fill="rgb(41, 184, 231)" fill-opacity="0.58"/><path d="M114,165L133,165L126,160Z" fill="rgb(83, 192, 226)" fill-opacity="0.60"/><path d="M202,104L179,103L211,91Z" fill="rgb(48, 169, 210)" fill-opacity="0.51"/><path d="M77,91L100,59L134,100Z" fill="rgb(59, 208, 243)" fill-opacity="0.52"/><path d="M191,80L198,72L174,57Z" fill="rgb(48, 147, 186)" fill-opacity="0.44"/><path d="M156,190L132,202L147,216Z" fill="rgb(44, 170, 215)" fill-opacity="0.50"/><path d="M233,122L214,125L222,112Z" fill="rgb(86, 222, 246)" fill-opacity="0.49"/><path d="M129,73L124,68L124,76Z" fill="rgb(127, 226, 245)" fill-opacity="0.44"/><path d="M229,130L277,117L244,151Z" fill="rgb(55, 213, 249)" fill-opacity="0.53"/><path d="M16,232L13,268L34,246Z" fill="rgb(47, 173, 219)" fill-opacity="0.57"/><path d="M70,190L45,215L31,194Z" fill="rgb(58, 162, 201)" fill-opacity="0.45"/><path d="M200,138L214,127L191,129Z" fill="rgb(36, 168, 216)" fill-opacity="0.50"/><path d="M192,77L245,46L206,59Z" fill="rgb(44, 183, 228)" fill-opacity="0.62"/><path d="M186,73L169,55L168,81Z" fill="rgb(96, 190, 218)" fill-opacity="0.47"/><path d="M96,-50L142,-5L94,52Z" fill="rgb(54, 185, 227)" fill-opacity="0.59"/><path d="M150,211L184,225L168,202Z" fill="rgb(51, 177, 221)" fill-opacity="0.46"/><path d="M155,-3L215,-37L215,48Z" fill="rgb(43, 184, 230)" fill-opacity="0.60"/><path d="M267,239L219,241L258,302Z" fill="rgb(68, 214, 246)" fill-opacity="0.43"/><path d="M173,61L163,62L162,67Z" fill="rgb(109, 202, 224)" fill-opacity="0.57"/><path d="M186,120L183,138L199,118Z" fill="rgb(82, 185, 218)" fill-opacity="0.49"/><path d="M121,181L168,145L173,157Z" fill="rgb(64, 199, 236)" fill-opacity="0.36"/><path d="M88,152L100,175L116,158Z" fill="rgb(54, 182, 224)" fill-opacity="0.49"/><path d="M240,232L216,193L201,227Z" fill="rgb(54, 169, 211)" fill-opacity="0.58"/><path d="M212,69L256,102L322,82Z" fill="rgb(71, 186, 223)" fill-opacity="0.63"/><path d="M227,182L224,164L235,172Z" fill="rgb(76, 192, 228)" fill-opacity="0.53"/><path d="M74,186L70,169L84,184Z" fill="rgb(72, 176, 213)" fill-opacity="0.50"/><path d="M42,28L26,-36L73,29Z" fill="rgb(50, 201, 242)" fill-opacity="0.48"/><path d="M198,80L196,105L186,87Z" fill="rgb(88, 171, 200)" fill-opacity="0.48"/><path d="M150,166L131,172L128,158Z" fill="rgb(77, 203, 236)" fill-opacity="0.47"/><path d="M172,127L126,164L154,94Z" fill="rgb(46, 196, 239)" fill-opacity="0.30"/><path d="M74,22L79,72L53,43Z" fill="rgb(32, 166, 217)" fill-opacity="0.30"/><path d="M154,121L135,87L181,105Z" fill="rgb(39, 162, 208)" fill-opacity="0.46"/><path d="M207,73L215,36L191,58Z" fill="rgb(66, 194, 232)" fill-opacity="0.69"/><path d="M16,210L13,193L8,204Z" fill="rgb(37, 199, 243)" fill-opacity="0.48"/><path d="M97,55L116,48L117,65Z" fill="rgb(59, 175, 216)" fill-opacity="0.47"/><path d="M189,148L287,147L174,202Z" fill="rgb(5, 161, 223)" fill-opacity="0.16"/><path d="M238,223L250,230L242,210Z" fill="rgb(77, 199, 232)" fill-opacity="0.61"/><path d="M57,18L55,-15L100,9Z" fill="rgb(55, 182, 224)" fill-opacity="0.66"/><path d="M141,84L152,100L159,79Z" fill="rgb(69, 152, 181)" fill-opacity="0.33"/><path d="M172,196L156,177L160,189Z" fill="rgb(24, 137, 187)" fill-opacity="0.47"/><path d="M166,5L121,25L159,30Z" fill="rgb(39, 181, 229)" fill-opacity="0.40"/><path d="M187,149L177,147L177,188Z" fill="rgb(29, 134, 175)" fill-opacity="0.40"/><path d="M183,46L169,49L180,58Z" fill="rgb(82, 185, 218)" fill-opacity="0.47"/><path d="M128,166L127,184L103,169Z" fill="rgb(45, 156, 198)" fill-opacity="0.48"/><path d="M114,156L145,160L112,148Z" fill="rgb(28, 146, 195)" fill-opacity="0.47"/><path d="M202,-3L231,12L230,31Z" fill="rgb(55, 197, 237)" fill-opacity="0.57"/><path d="M208,210L195,172L215,190Z" fill="rgb(31, 150, 197)" fill-opacity="0.54"/><path d="M38,105L21,74L-6,106Z" fill="rgb(92, 182, 210)" fill-opacity="0.18"/><path d="M105,135L80,83L46,171Z" fill="rgb(39, 193, 242)" fill-opacity="0.30"/><path d="M138,26L170,41L116,56Z" fill="rgb(58, 205, 242)" fill-opacity="0.58"/><path d="M176,86L179,95L167,86Z" fill="rgb(107, 213, 241)" fill-opacity="0.48"/><path d="M199,95L185,101L199,104Z" fill="rgb(44, 161, 204)" fill-opacity="0.54"/><path d="M12,161L-6,174L2,161Z" fill="rgb(92, 205, 234)" fill-opacity="0.50"/><path d="M229,29L214,32L221,17Z" fill="rgb(97, 189, 219)" fill-opacity="0.39"/><path d="M111,69L101,61L88,90Z" fill="rgb(77, 213, 241)" fill-opacity="0.48"/><path d="M6,216L-16,217L26,200Z" fill="rgb(86, 208, 238)" fill-opacity="0.44"/><path d="M84,165L73,193L132,181Z" fill="rgb(59, 171, 211)" fill-opacity="0.50"/><path d="M227,112L221,85L255,99Z" fill="rgb(65, 202, 239)" fill-opacity="0.72"/><path d="M291,101L230,44L291,39Z" fill="rgb(71, 190, 227)" fill-opacity="0.67"/><path d="M251,126L209,128L220,157Z" fill="rgb(49, 199, 241)" fill-opacity="0.75"/><path d="M-8,240L-2,269L17,253Z" fill="rgb(78, 212, 243)" fill-opacity="0.39"/><path d="M14,12L13,-4L39,62Z" fill="rgb(91, 203, 232)" fill-opacity="0.42"/><path d="M97,110L-26,171L-25,112Z" fill="rgb(49, 207, 247)" fill-opacity="0.41"/><path d="M232,220L243,162L217,213Z" fill="rgb(43, 184, 231)" fill-opacity="0.51"/><path d="M241,72L214,70L243,58Z" fill="rgb(70, 173, 209)" fill-opacity="0.57"/><path d="M202,102L225,98L201,132Z" fill="rgb(53, 198, 239)" fill-opacity="0.54"/><path d="M203,99L221,95L195,79Z" fill="rgb(90, 190, 220)" fill-opacity="0.42"/><path d="M130,233L101,239L109,266Z" fill="rgb(52, 190, 231)" fill-opacity="0.63"/><path d="M119,33L77,25L80,58Z" fill="rgb(69, 169, 206)" fill-opacity="0.38"/><path d="M124,140L102,134L130,129Z" fill="rgb(35, 146, 192)" fill-opacity="0.49"/><path d="M58,220L68,175L89,204Z" fill="rgb(57, 194, 235)" fill-opacity="0.56"/><path d="M50,189L41,196L48,208Z" fill="rgb(98, 179, 206)" fill-opacity="0.51"/><path d="M88,113L98,95L100,161Z" fill="rgb(41, 169, 217)" fill-opacity="0.47"/><path d="M59,199L51,178L39,187Z" fill="rgb(46, 155, 196)" fill-opacity="0.47"/><path d="M52,14L58,40L33,5Z" fill="rgb(65, 203, 239)" fill-opacity="0.53"/><path d="M222,139L206,167L195,164Z" fill="rgb(43, 183, 229)" fill-opacity="0.53"/><path d="M226,244L237,231L218,238Z" fill="rgb(80, 191, 226)" fill-opacity="0.48"/><path d="M102,84L117,69L130,81Z" fill="rgb(34, 191, 240)" fill-opacity="0.43"/><path d="M86,233L168,231L88,215Z" fill="rgb(73, 207, 239)" fill-opacity="0.55"/><path d="M197,52L163,43L194,24Z" fill="rgb(30, 175, 227)" fill-opacity="0.33"/><path d="M189,87L173,87L204,94Z" fill="rgb(102, 192, 219)" fill-opacity="0.55"/><path d="M228,165L223,176L246,179Z" fill="rgb(66, 199, 234)" fill-opacity="0.51"/><path d="M9,55L3,43L-16,51Z" fill="rgb(36, 175, 225)" fill-opacity="0.53"/><path d="M189,167L158,188L161,166Z" fill="rgb(44, 168, 213)" fill-opacity="0.48"/><path d="M70,87L55,32L29,91Z" fill="rgb(45, 193, 238)" fill-opacity="0.51"/><path d="M222,221L238,219L231,235Z" fill="rgb(45, 162, 205)" fill-opacity="0.53"/><path d="M107,193L106,224L65,197Z" fill="rgb(60, 214, 249)" fill-opacity="0.35"/><path d="M92,51L62,70L76,103Z" fill="rgb(56, 189, 230)" fill-opacity="0.67"/><path d="M20,190L23,180L28,197Z" fill="rgb(96, 201, 230)" fill-opacity="0.59"/><path d="M24,235L33,228L31,241Z" fill="rgb(93, 203, 232)" fill-opacity="0.60"/><path d="M116,184L118,199L141,191Z" fill="rgb(81, 190, 223)" fill-opacity="0.49"/><path d="M8,72L-4,69L7,95Z" fill="rgb(41, 173, 220)" fill-opacity="0.52"/><path d="M99,191L121,173L91,185Z" fill="rgb(82, 190, 224)" fill-opacity="0.47"/><path d="M175,104L171,96L165,124Z" fill="rgb(40, 156, 200)" fill-opacity="0.51"/><path d="M29,23L22,26L25,44Z" fill="rgb(95, 208, 235)" fill-opacity="0.54"/><path d="M263,32L229,33L239,15Z" fill="rgb(87, 220, 242)" fill-opacity="0.46"/><path d="M85,219L103,207L100,221Z" fill="rgb(87, 212, 239)" fill-opacity="0.41"/><path d="M147,83L137,79L147,91Z" fill="rgb(74, 184, 219)" fill-opacity="0.44"/><path d="M104,242L88,245L105,250Z" fill="rgb(46, 164, 207)" fill-opacity="0.62"/><path d="M180,192L174,187L174,193Z" fill="rgb(69, 183, 221)" fill-opacity="0.51"/><path d="M116,15L86,11L102,27Z" fill="rgb(63, 193, 232)" fill-opacity="0.54"/><path d="M0,217L22,216L26,250Z" fill="rgb(56, 186, 228)" fill-opacity="0.53"/><path d="M187,246L201,217L221,276Z" fill="rgb(45, 184, 231)" fill-opacity="0.51"/><path d="M168,73L183,62L145,82Z" fill="rgb(56, 167, 206)" fill-opacity="0.50"/><path d="M156,68L128,37L152,30Z" fill="rgb(59, 206, 243)" fill-opacity="0.52"/><path d="M166,133L193,141L164,141Z" fill="rgb(36, 152, 196)" fill-opacity="0.51"/><path d="M11,19L16,39L23,17Z" fill="rgb(38, 180, 229)" fill-opacity="0.48"/><path d="M138,91L106,82L140,83Z" fill="rgb(72, 209, 243)" fill-opacity="0.42"/><path d="M70,17L93,24L72,45Z" fill="rgb(49, 153, 192)" fill-opacity="0.38"/><path d="M58,44L57,27L89,58Z" fill="rgb(51, 173, 215)" fill-opacity="0.66"/><path d="M64,87L86,97L67,103Z" fill="rgb(45, 176, 221)" fill-opacity="0.58"/><path d="M20,198L8,186L41,205Z" fill="rgb(42, 185, 232)" fill-opacity="0.56"/><path d="M167,199L119,208L152,232Z" fill="rgb(54, 194, 236)" fill-opacity="0.45"/><path d="M21,79L35,81L21,99Z" fill="rgb(42, 170, 215)" fill-opacity="0.51"/><path d="M253,151L245,132L269,134Z" fill="rgb(71, 217, 248)" fill-opacity="0.48"/><path d="M232,143L219,140L223,132Z" fill="rgb(65, 215, 248)" fill-opacity="0.48"/><path d="M22,20L14,-5L25,-1Z" fill="rgb(43, 166, 211)" fill-opacity="0.48"/><path d="M58,168L61,191L94,157Z" fill="rgb(56, 192, 234)" fill-opacity="0.55"/><path d="M166,90L160,93L170,99Z" fill="rgb(98, 192, 220)" fill-opacity="0.63"/><path d="M183,23L216,31L191,5Z" fill="rgb(43, 175, 221)" fill-opacity="0.56"/><path d="M159,16L162,52L197,-15Z" fill="rgb(43, 201, 245)" fill-opacity="0.41"/><path d="M135,125L157,138L140,147Z" fill="rgb(55, 203, 241)" fill-opacity="0.49"/><path d="M50,190L52,204L36,189Z" fill="rgb(89, 173, 202)" fill-opacity="0.51"/><path d="M155,75L159,71L146,60Z" fill="rgb(37, 170, 216)" fill-opacity="0.47"/><path d="M10,136L2,145L-8,128Z" fill="rgb(73, 225, 250)" fill-opacity="0.45"/><path d="M18,179L23,179L16,188Z" fill="rgb(38, 173, 223)" fill-opacity="0.50"/><path d="M121,153L131,127L141,136Z" fill="rgb(33, 163, 213)" fill-opacity="0.36"/><path d="M179,113L188,113L180,157Z" fill="rgb(59, 165, 203)" fill-opacity="0.48"/><path d="M22,25L20,77L7,69Z" fill="rgb(64, 209, 244)" fill-opacity="0.47"/><path d="M139,111L102,116L128,85Z" fill="rgb(46, 192, 236)" fill-opacity="0.48"/><path d="M225,182L224,163L199,181Z" fill="rgb(40, 153, 197)" fill-opacity="0.45"/><path d="M25,28L23,41L34,50Z" fill="rgb(81, 215, 244)" fill-opacity="0.53"/><path d="M111,77L101,77L139,51Z" fill="rgb(69, 202, 237)" fill-opacity="0.57"/><path d="M68,172L47,149L69,141Z" fill="rgb(79, 201, 234)" fill-opacity="0.30"/><path d="M165,88L139,88L144,108Z" fill="rgb(43, 147, 189)" fill-opacity="0.30"/><path d="M30,184L39,163L67,175Z" fill="rgb(50, 186, 230)" fill-opacity="0.50"/><path d="M143,192L157,197L136,200Z" fill="rgb(48, 157, 198)" fill-opacity="0.42"/><path d="M10,56L16,74L20,62Z" fill="rgb(81, 209, 238)" fill-opacity="0.56"/><path d="M45,218L53,218L48,230Z" fill="rgb(97, 196, 223)" fill-opacity="0.48"/><path d="M184,184L175,173L182,209Z" fill="rgb(30, 143, 189)" fill-opacity="0.47"/><path d="M13,6L10,5L7,21Z" fill="rgb(45, 186, 230)" fill-opacity="0.50"/><path d="M208,207L195,207L210,227Z" fill="rgb(48, 155, 195)" fill-opacity="0.52"/><path d="M27,13L44,11L27,-6Z" fill="rgb(69, 205, 239)" fill-opacity="0.48"/><path d="M145,222L105,221L136,236Z" fill="rgb(77, 213, 242)" fill-opacity="0.50"/><path d="M207,47L235,29L239,48Z" fill="rgb(70, 202, 237)" fill-opacity="0.58"/><path d="M211,28L205,18L210,6Z" fill="rgb(73, 201, 237)" fill-opacity="0.41"/><path d="M165,117L167,157L180,113Z" fill="rgb(38, 173, 221)" fill-opacity="0.44"/><path d="M142,57L135,83L145,78Z" fill="rgb(70, 199, 235)" fill-opacity="0.55"/><path d="M48,182L20,186L31,180Z" fill="rgb(59, 177, 218)" fill-opacity="0.52"/><path d="M189,232L183,215L200,225Z" fill="rgb(55, 186, 230)" fill-opacity="0.49"/><path d="M97,248L87,262L80,253Z" fill="rgb(65, 199, 237)" fill-opacity="0.53"/><path d="M148,147L147,164L132,156Z" fill="rgb(37, 179, 228)" fill-opacity="0.48"/><path d="M163,60L170,67L165,68Z" fill="rgb(117, 209, 233)" fill-opacity="0.38"/><path d="M228,56L205,64L238,69Z" fill="rgb(41, 167, 212)" fill-opacity="0.43"/><path d="M163,194L155,204L167,207Z" fill="rgb(80, 192, 225)" fill-opacity="0.44"/><path d="M63,10L92,16L69,-9Z" fill="rgb(68, 188, 225)" fill-opacity="0.44"/><path d="M175,178L172,195L164,172Z" fill="rgb(58, 179, 218)" fill-opacity="0.54"/><path d="M188,101L185,89L196,101Z" fill="rgb(51, 162, 203)" fill-opacity="0.50"/><path d="M165,106L158,97L132,122Z" fill="rgb(43, 180, 227)" fill-opacity="0.54"/><path d="M219,107L220,98L206,101Z" fill="rgb(35, 173, 221)" fill-opacity="0.46"/><path d="M179,73L188,85L208,78Z" fill="rgb(74, 172, 205)" fill-opacity="0.53"/><path d="M135,182L127,197L125,164Z" fill="rgb(35, 173, 223)" fill-opacity="0.40"/><path d="M152,101L154,92L167,95Z" fill="rgb(59, 167, 204)" fill-opacity="0.52"/><path d="M161,157L176,169L154,157Z" fill="rgb(75, 207, 241)" fill-opacity="0.40"/><path d="M70,104L56,108L75,129Z" fill="rgb(42, 191, 238)" fill-opacity="0.60"/><path d="M171,21L215,34L155,38Z" fill="rgb(49, 198, 240)" fill-opacity="0.53"/><path d="M165,48L193,68L184,70Z" fill="rgb(45, 164, 208)" fill-opacity="0.40"/><path d="M206,130L207,142L188,147Z" fill="rgb(77, 188, 223)" fill-opacity="0.50"/><path d="M34,121L25,104L34,99Z" fill="rgb(58, 204, 242)" fill-opacity="0.47"/><path d="M9,157L2,175L-8,171Z" fill="rgb(87, 210, 238)" fill-opacity="0.50"/><path d="M27,109L17,116L17,95Z" fill="rgb(41, 172, 218)" fill-opacity="0.50"/><path d="M122,174L158,168L162,177Z" fill="rgb(36, 193, 243)" fill-opacity="0.38"/><path d="M55,213L39,209L29,192Z" fill="rgb(42, 175, 223)" fill-opacity="0.58"/><path d="M179,71L178,79L184,76Z" fill="rgb(54, 167, 209)" fill-opacity="0.49"/><path d="M222,14L236,10L237,18Z" fill="rgb(42, 201, 241)" fill-opacity="0.53"/><path d="M127,20L106,5L196,-5Z" fill="rgb(50, 197, 239)" fill-opacity="0.63"/><path d="M189,148L182,166L207,147Z" fill="rgb(34, 149, 194)" fill-opacity="0.55"/><path d="M56,20L74,25L52,-19Z" fill="rgb(29, 176, 226)" fill-opacity="0.33"/><path d="M105,186L109,199L117,178Z" fill="rgb(43, 172, 217)" fill-opacity="0.50"/><path d="M42,41L42,27L37,34Z" fill="rgb(44, 163, 204)" fill-opacity="0.47"/><path d="M3,56L-3,62L-4,45Z" fill="rgb(102, 199, 227)" fill-opacity="0.46"/><path d="M147,186L164,195L142,169Z" fill="rgb(78, 191, 228)" fill-opacity="0.33"/><path d="M150,63L182,61L202,49Z" fill="rgb(51, 172, 214)" fill-opacity="0.70"/><path d="M252,74L269,43L239,74Z" fill="rgb(75, 198, 233)" fill-opacity="0.49"/><path d="M101,152L85,144L103,146Z" fill="rgb(31, 161, 210)" fill-opacity="0.53"/><path d="M199,101L186,100L205,109Z" fill="rgb(42, 178, 225)" fill-opacity="0.44"/><path d="M190,128L172,133L194,146Z" fill="rgb(57, 168, 207)" fill-opacity="0.63"/><path d="M255,208L254,165L235,209Z" fill="rgb(55, 207, 243)" fill-opacity="0.51"/><path d="M202,248L219,237L219,289Z" fill="rgb(51, 196, 239)" fill-opacity="0.51"/><path d="M13,35L27,30L3,70Z" fill="rgb(45, 199, 242)" fill-opacity="0.47"/><path d="M71,23L83,18L65,10Z" fill="rgb(44, 161, 203)" fill-opacity="0.50"/><path d="M204,131L199,136L192,128Z" fill="rgb(35, 163, 211)" fill-opacity="0.51"/><path d="M220,192L200,209L201,203Z" fill="rgb(34, 145, 189)" fill-opacity="0.53"/><path d="M218,9L274,28L246,-27Z" fill="rgb(70, 217, 244)" fill-opacity="0.39"/><path d="M214,28L213,18L225,20Z" fill="rgb(47, 173, 218)" fill-opacity="0.48"/><path d="M144,251L150,244L143,247Z" fill="rgb(84, 215, 242)" fill-opacity="0.50"/><path d="M23,198L36,211L21,222Z" fill="rgb(89, 204, 231)" fill-opacity="0.46"/><path d="M35,232L11,227L29,238Z" fill="rgb(85, 202, 232)" fill-opacity="0.52"/><path d="M146,138L153,115L168,128Z" fill="rgb(46, 200, 243)" fill-opacity="0.49"/><path d="M102,132L107,119L70,123Z" fill="rgb(41, 181, 229)" fill-opacity="0.48"/><path d="M12,31L-10,38L11,43Z" fill="rgb(89, 207, 236)" fill-opacity="0.46"/><path d="M101,239L114,222L99,225Z" fill="rgb(83, 209, 238)" fill-opacity="0.48"/><path d="M203,22L196,24L211,36Z" fill="rgb(66, 196, 233)" fill-opacity="0.47"/><path d="M248,234L269,254L253,222Z" fill="rgb(37, 189, 236)" fill-opacity="0.59"/><path d="M216,127L187,128L207,116Z" fill="rgb(80, 203, 236)" fill-opacity="0.54"/><path d="M147,114L125,102L117,130Z" fill="rgb(37, 178, 227)" fill-opacity="0.46"/><path d="M82,164L96,151L66,150Z" fill="rgb(42, 172, 219)" fill-opacity="0.40"/><path d="M204,189L183,194L202,199Z" fill="rgb(27, 157, 208)" fill-opacity="0.54"/><path d="M269,190L242,178L207,132Z" fill="rgb(43, 195, 240)" fill-opacity="0.61"/><path d="M97,139L110,164L112,142Z" fill="rgb(50, 180, 223)" fill-opacity="0.57"/><path d="M131,51L105,23L110,66Z" fill="rgb(53, 181, 225)" fill-opacity="0.49"/><path d="M251,251L241,242L248,255Z" fill="rgb(38, 192, 236)" fill-opacity="0.45"/><path d="M4,172L-10,193L6,212Z" fill="rgb(45, 203, 244)" fill-opacity="0.47"/><path d="M261,255L254,277L230,251Z" fill="rgb(80, 214, 240)" fill-opacity="0.52"/><path d="M226,169L204,149L226,161Z" fill="rgb(48, 178, 222)" fill-opacity="0.66"/><path d="M248,220L253,210L257,217Z" fill="rgb(38, 182, 232)" fill-opacity="0.53"/><path d="M165,196L180,215L167,213Z" fill="rgb(54, 165, 205)" fill-opacity="0.48"/><path d="M45,249L36,243L52,241Z" fill="rgb(80, 213, 244)" fill-opacity="0.40"/><path d="M158,232L169,229L168,239Z" fill="rgb(65, 214, 246)" fill-opacity="0.57"/><path d="M129,126L141,134L134,123Z" fill="rgb(83, 202, 235)" fill-opacity="0.44"/><path d="M211,238L241,234L240,223Z" fill="rgb(56, 177, 218)" fill-opacity="0.56"/><path d="M5,78L22,89L17,82Z" fill="rgb(78, 206, 238)" fill-opacity="0.50"/></svg>
